<?xml version="1.0" encoding="UTF-8" standalone="no"?>
<!DOCTYPE svg PUBLIC "-//W3C//DTD SVG 20010904//EN"
              "http://www.w3.org/TR/2001/REC-SVG-20010904/DTD/svg10.dtd">

<svg xmlns="http://www.w3.org/2000/svg"
     width="129.664mm" height="210.638mm"
     viewBox="0 0 490 796">
  <path id="Selection"
        fill="none" stroke="black" stroke-width="1"
        d="M 90.00,79.00
           C 90.00,79.00 90.00,52.00 90.00,52.00
             90.02,47.40 90.07,43.84 93.39,40.21
             98.75,34.35 108.67,34.93 112.69,42.05
             116.08,48.07 115.00,71.05 115.00,79.00
             115.00,79.00 161.00,79.00 161.00,79.00
             161.00,79.00 161.61,46.00 161.61,46.00
             163.30,39.73 168.28,35.37 175.00,36.23
             184.63,37.46 185.99,45.02 186.00,53.00
             186.00,53.00 186.00,70.00 186.00,70.00
             186.02,72.35 185.81,75.61 187.60,77.40
             189.52,79.32 193.46,78.99 196.00,79.00
             196.00,79.00 223.00,79.00 223.00,79.00
             225.54,78.99 229.48,79.32 231.40,77.40
             233.32,75.48 232.99,71.54 233.00,69.00
             233.01,62.63 231.69,47.99 234.30,43.02
             238.67,34.68 250.82,33.78 255.77,42.05
             257.88,45.57 257.98,49.05 258.00,53.00
             258.00,53.00 258.00,79.00 258.00,79.00
             258.00,79.00 290.00,79.00 290.00,79.00
             292.86,79.00 300.40,79.47 302.57,77.98
             305.08,76.25 304.96,72.70 305.00,70.00
             305.06,65.02 304.42,46.36 305.74,43.02
             307.60,38.27 313.06,35.60 318.00,36.23
             327.23,37.41 328.99,44.19 329.00,52.00
             329.00,52.00 329.00,71.00 329.00,71.00
             329.04,73.14 328.96,75.77 330.60,77.40
             332.39,79.19 335.65,78.98 338.00,79.00
             338.00,79.00 366.00,79.00 366.00,79.00
             368.54,78.99 372.48,79.32 374.40,77.40
             376.32,75.48 375.99,71.54 376.00,69.00
             376.01,62.12 374.50,46.24 378.57,41.10
             383.49,34.90 393.40,34.30 398.11,41.10
             400.24,44.18 400.39,49.34 400.13,53.00
             400.13,53.00 400.13,71.00 400.13,71.00
             400.06,73.98 399.96,77.01 403.15,78.40
             403.15,78.40 418.00,79.29 418.00,79.29
             428.80,80.62 437.68,84.18 446.00,91.30
             465.98,108.40 464.04,123.57 464.00,147.00
             464.00,147.00 464.00,617.00 464.00,617.00
             464.00,617.00 464.00,709.00 464.00,709.00
             463.96,736.03 439.41,757.96 413.00,758.00
             413.00,758.00 196.00,758.00 196.00,758.00
             196.00,758.00 76.00,758.00 76.00,758.00
             47.90,757.67 26.04,733.54 26.00,706.00
             26.00,706.00 26.00,225.00 26.00,225.00
             26.00,225.00 26.00,152.00 26.00,152.00
             26.00,152.00 26.00,131.00 26.00,131.00
             26.03,110.06 39.01,89.83 59.00,82.54
             70.95,78.19 77.77,79.00 90.00,79.00 Z
           M 90.00,104.00
           C 75.79,104.00 65.00,102.88 55.64,116.00
             49.11,125.14 51.00,138.22 51.00,149.00
             51.00,149.00 51.00,219.00 51.00,219.00
             51.00,219.00 51.00,597.00 51.00,597.00
             51.00,597.00 51.00,705.00 51.00,705.00
             51.03,723.63 63.18,732.97 81.00,733.00
             81.00,733.00 357.00,733.00 357.00,733.00
             357.00,733.00 411.00,733.00 411.00,733.00
             430.97,732.97 439.97,719.77 440.00,701.00
             440.00,701.00 440.00,242.00 440.00,242.00
             440.00,242.00 440.00,136.00 440.00,136.00
             439.97,113.93 428.81,103.64 407.00,104.00
             399.20,104.13 400.01,107.14 400.00,114.00
             400.00,114.00 400.00,131.00 400.00,131.00
             399.80,145.47 385.57,149.17 378.43,139.96
             375.68,136.41 376.01,133.21 376.00,129.00
             376.00,129.00 376.00,111.00 376.00,111.00
             375.96,109.05 376.10,106.37 374.40,105.02
             372.92,103.85 369.82,104.01 368.00,104.00
             368.00,104.00 341.00,104.00 341.00,104.00
             338.59,104.00 332.40,103.60 330.60,105.02
             328.62,106.59 329.00,110.70 329.00,113.00
             328.99,119.83 330.47,134.73 326.43,139.87
             321.29,146.49 311.80,146.87 306.89,139.87
             304.74,136.75 305.01,133.56 305.00,130.00
             305.00,130.00 305.00,112.00 305.00,112.00
             304.96,109.51 305.20,105.89 302.57,104.57
             300.79,103.68 291.55,104.00 289.00,104.00
             289.00,104.00 258.00,104.00 258.00,104.00
             258.00,104.00 258.00,129.00 258.00,129.00
             257.77,146.35 242.23,148.94 235.65,139.96
             231.57,134.38 233.01,121.00 233.00,114.00
             232.98,104.46 232.73,104.02 224.00,104.00
             224.00,104.00 195.00,104.00 195.00,104.00
             192.70,104.00 188.59,103.62 187.02,105.60
             185.77,107.19 186.00,111.01 186.00,113.00
             186.00,113.00 186.00,128.00 186.00,128.00
             185.99,131.80 186.22,135.61 184.15,138.98
             179.75,146.15 170.10,147.07 164.65,140.67
             161.08,136.49 161.01,131.17 161.00,126.00
             161.00,126.00 161.00,104.00 161.00,104.00
             161.00,104.00 129.00,104.00 129.00,104.00
             126.34,104.00 118.49,103.52 116.60,105.02
             114.62,106.59 115.00,110.70 115.00,113.00
             114.99,120.36 116.30,135.11 111.43,140.67
             104.29,148.83 90.25,145.33 90.00,131.00
             90.00,131.00 90.00,104.00 90.00,104.00 Z
           M 98.00,204.65
           C 98.00,204.65 130.00,204.00 130.00,204.00
             130.00,204.00 191.00,204.00 191.00,204.00
             191.00,204.00 384.00,204.00 384.00,204.00
             388.21,204.01 392.38,203.74 395.89,206.51
             401.92,211.26 401.34,222.06 394.96,226.26
             391.92,228.27 388.47,227.99 385.00,228.00
             385.00,228.00 152.00,228.00 152.00,228.00
             152.00,228.00 106.00,228.00 106.00,228.00
             101.78,227.99 97.79,228.26 94.33,225.35
             87.11,219.31 89.10,208.48 98.00,204.65 Z
           M 100.00,262.12
           C 100.00,262.12 133.00,262.12 133.00,262.12
             133.00,262.12 195.00,262.12 195.00,262.12
             195.00,262.12 383.00,262.12 383.00,262.12
             387.47,262.01 392.11,261.88 395.79,264.70
             401.77,269.07 401.40,279.69 395.79,284.03
             391.67,287.10 387.77,286.99 383.00,287.00
             383.00,287.00 107.00,287.00 107.00,287.00
             102.09,286.99 98.12,287.18 94.21,283.61
             86.79,276.82 89.45,265.54 100.00,262.12 Z
           M 101.00,320.12
           C 101.00,320.12 134.00,320.12 134.00,320.12
             134.00,320.12 195.00,320.12 195.00,320.12
             195.00,320.12 381.00,320.12 381.00,320.12
             386.51,320.01 392.59,320.02 396.77,324.22
             401.80,329.28 401.07,339.26 394.96,343.15
             391.69,345.22 387.71,344.99 384.00,345.00
             384.00,345.00 106.00,345.00 106.00,345.00
             101.13,344.99 97.31,345.03 93.53,341.39
             87.06,335.14 89.12,323.41 101.00,320.12 Z
           M 99.00,379.57
           C 99.00,379.57 132.00,379.00 132.00,379.00
             132.00,379.00 193.00,379.00 193.00,379.00
             193.00,379.00 384.00,379.00 384.00,379.00
             387.66,379.01 391.70,378.77 394.91,380.85
             401.31,385.02 402.12,395.20 396.47,400.35
             392.58,403.90 385.96,403.99 381.00,404.00
             381.00,404.00 149.00,404.00 149.00,404.00
             149.00,404.00 116.00,404.00 116.00,404.00
             110.86,404.00 102.65,404.47 98.00,402.74
             87.91,398.97 86.59,384.45 99.00,379.57 Z
           M 97.02,438.74
           C 102.83,437.32 120.91,438.00 128.00,438.00
             128.00,438.00 189.00,438.00 189.00,438.00
             189.00,438.00 385.00,438.00 385.00,438.00
             388.47,438.01 391.92,437.73 394.96,439.74
             401.30,443.92 401.96,454.66 395.89,459.35
             392.19,462.21 388.39,461.99 384.00,462.00
             384.00,462.00 153.00,462.00 153.00,462.00
             153.00,462.00 106.00,462.00 106.00,462.00
             101.54,461.99 97.99,462.27 94.33,459.20
             87.24,453.26 89.28,442.99 97.02,438.74 Z
           M 99.00,496.56
           C 99.00,496.56 132.00,496.00 132.00,496.00
             132.00,496.00 193.00,496.00 193.00,496.00
             193.00,496.00 384.00,496.00 384.00,496.00
             387.71,496.01 391.69,495.78 394.96,497.85
             401.16,501.79 401.93,512.40 396.47,517.35
             392.80,520.68 382.88,520.99 378.00,521.00
             378.00,521.00 147.00,521.00 147.00,521.00
             147.00,521.00 112.00,521.00 112.00,521.00
             109.29,520.96 99.17,520.05 97.02,519.15
             88.24,515.47 86.58,501.00 99.00,496.56 Z
           M 97.02,553.74
           C 102.83,552.32 120.91,553.00 128.00,553.00
             128.00,553.00 189.00,553.00 189.00,553.00
             189.00,553.00 385.00,553.00 385.00,553.00
             388.47,553.01 391.92,552.73 394.96,554.74
             401.30,558.92 401.96,569.66 395.89,574.35
             392.19,577.21 388.39,576.99 384.00,577.00
             384.00,577.00 153.00,577.00 153.00,577.00
             153.00,577.00 106.00,577.00 106.00,577.00
             101.54,576.99 97.99,577.27 94.33,574.20
             87.24,568.26 89.28,557.99 97.02,553.74 Z
           M 99.00,610.56
           C 99.00,610.56 132.00,610.00 132.00,610.00
             132.00,610.00 193.00,610.00 193.00,610.00
             193.00,610.00 384.00,610.00 384.00,610.00
             387.71,610.01 391.69,609.78 394.96,611.85
             401.16,615.79 401.93,626.40 396.47,631.35
             392.80,634.68 382.88,634.99 378.00,635.00
             378.00,635.00 147.00,635.00 147.00,635.00
             147.00,635.00 112.00,635.00 112.00,635.00
             109.29,634.96 99.17,634.05 97.02,633.15
             88.24,629.47 86.58,615.00 99.00,610.56 Z" />
</svg>
